<mxfile host="Electron" agent="Mozilla/5.0 (Windows NT 10.0; Win64; x64) AppleWebKit/537.36 (KHTML, like Gecko) draw.io/26.2.2 Chrome/134.0.6998.178 Electron/35.1.2 Safari/537.36" version="26.2.2" pages="2">
  <diagram name="Page-1" id="4Nl73VM-QMdfTOfgcKtq">
    <mxGraphModel dx="2068" dy="1202" grid="1" gridSize="10" guides="1" tooltips="1" connect="1" arrows="1" fold="1" page="1" pageScale="1" pageWidth="1169" pageHeight="827" math="0" shadow="0">
      <root>
        <mxCell id="0" />
        <mxCell id="1" parent="0" />
        <mxCell id="q9a62khezT4a36w7Y_Qh-1" value="&lt;font style=&quot;font-size: 14px;&quot;&gt;&lt;b&gt;Vue Application&lt;/b&gt;&lt;/font&gt;" style="rounded=1;whiteSpace=wrap;html=1;arcSize=6;verticalAlign=top;" parent="1" vertex="1">
          <mxGeometry x="80" y="130" width="220" height="300" as="geometry" />
        </mxCell>
        <mxCell id="q9a62khezT4a36w7Y_Qh-2" value="BabylonJS" style="rounded=0;whiteSpace=wrap;html=1;" parent="1" vertex="1">
          <mxGeometry x="94" y="169" width="120" height="40" as="geometry" />
        </mxCell>
        <mxCell id="q9a62khezT4a36w7Y_Qh-3" value="JointJS" style="rounded=0;whiteSpace=wrap;html=1;" parent="1" vertex="1">
          <mxGeometry x="94" y="220" width="120" height="40" as="geometry" />
        </mxCell>
        <mxCell id="q9a62khezT4a36w7Y_Qh-4" value="websocket" style="rounded=0;whiteSpace=wrap;html=1;" parent="1" vertex="1">
          <mxGeometry x="214" y="220" width="66" height="40" as="geometry" />
        </mxCell>
        <mxCell id="q9a62khezT4a36w7Y_Qh-6" value="Websocket" style="rounded=0;whiteSpace=wrap;html=1;" parent="1" vertex="1">
          <mxGeometry x="214" y="169" width="70" height="40" as="geometry" />
        </mxCell>
        <mxCell id="q9a62khezT4a36w7Y_Qh-9" style="edgeStyle=orthogonalEdgeStyle;rounded=0;orthogonalLoop=1;jettySize=auto;html=1;entryX=1;entryY=0.5;entryDx=0;entryDy=0;" parent="1" source="q9a62khezT4a36w7Y_Qh-8" target="q9a62khezT4a36w7Y_Qh-4" edge="1">
          <mxGeometry relative="1" as="geometry" />
        </mxCell>
        <mxCell id="q9a62khezT4a36w7Y_Qh-8" value="NATS.IO" style="rounded=1;whiteSpace=wrap;html=1;" parent="1" vertex="1">
          <mxGeometry x="440" y="220" width="120" height="40" as="geometry" />
        </mxCell>
        <mxCell id="q9a62khezT4a36w7Y_Qh-11" style="edgeStyle=orthogonalEdgeStyle;rounded=0;orthogonalLoop=1;jettySize=auto;html=1;entryX=0.5;entryY=0;entryDx=0;entryDy=0;" parent="1" source="q9a62khezT4a36w7Y_Qh-10" target="q9a62khezT4a36w7Y_Qh-8" edge="1">
          <mxGeometry relative="1" as="geometry" />
        </mxCell>
        <mxCell id="q9a62khezT4a36w7Y_Qh-10" value="" style="sketch=0;outlineConnect=0;fontColor=#232F3E;gradientColor=none;fillColor=#7AA116;strokeColor=none;dashed=0;verticalLabelPosition=bottom;verticalAlign=top;align=center;html=1;fontSize=12;fontStyle=0;aspect=fixed;pointerEvents=1;shape=mxgraph.aws4.iot_thing_temperature_sensor;" parent="1" vertex="1">
          <mxGeometry x="960" y="110" width="50" height="50" as="geometry" />
        </mxCell>
      </root>
    </mxGraphModel>
  </diagram>
  <diagram id="WbPP5id_1603l8PLrKX7" name="Code Strc">
    <mxGraphModel dx="1591" dy="829" grid="1" gridSize="10" guides="1" tooltips="1" connect="1" arrows="1" fold="1" page="1" pageScale="1" pageWidth="1169" pageHeight="827" math="0" shadow="0">
      <root>
        <mxCell id="0" />
        <mxCell id="1" parent="0" />
        <mxCell id="QzLz-SX4dngb7ABgqvlG-35" style="edgeStyle=orthogonalEdgeStyle;rounded=0;orthogonalLoop=1;jettySize=auto;html=1;entryX=0.5;entryY=0;entryDx=0;entryDy=0;" edge="1" parent="1" source="QzLz-SX4dngb7ABgqvlG-1" target="QzLz-SX4dngb7ABgqvlG-34">
          <mxGeometry relative="1" as="geometry" />
        </mxCell>
        <mxCell id="QzLz-SX4dngb7ABgqvlG-36" style="edgeStyle=orthogonalEdgeStyle;rounded=0;orthogonalLoop=1;jettySize=auto;html=1;entryX=0.5;entryY=0;entryDx=0;entryDy=0;" edge="1" parent="1" source="QzLz-SX4dngb7ABgqvlG-1" target="QzLz-SX4dngb7ABgqvlG-16">
          <mxGeometry relative="1" as="geometry" />
        </mxCell>
        <mxCell id="QzLz-SX4dngb7ABgqvlG-39" style="edgeStyle=orthogonalEdgeStyle;rounded=0;orthogonalLoop=1;jettySize=auto;html=1;entryX=0.5;entryY=0;entryDx=0;entryDy=0;" edge="1" parent="1" source="QzLz-SX4dngb7ABgqvlG-1" target="QzLz-SX4dngb7ABgqvlG-13">
          <mxGeometry relative="1" as="geometry" />
        </mxCell>
        <mxCell id="QzLz-SX4dngb7ABgqvlG-44" style="edgeStyle=orthogonalEdgeStyle;rounded=0;orthogonalLoop=1;jettySize=auto;html=1;entryX=0.5;entryY=0;entryDx=0;entryDy=0;" edge="1" parent="1" source="QzLz-SX4dngb7ABgqvlG-1" target="QzLz-SX4dngb7ABgqvlG-15">
          <mxGeometry relative="1" as="geometry">
            <Array as="points">
              <mxPoint x="678" y="80" />
              <mxPoint x="678" y="99" />
            </Array>
          </mxGeometry>
        </mxCell>
        <mxCell id="QzLz-SX4dngb7ABgqvlG-1" value="src" style="whiteSpace=wrap;html=1;" vertex="1" parent="1">
          <mxGeometry x="590" y="70" width="60" height="20" as="geometry" />
        </mxCell>
        <mxCell id="QzLz-SX4dngb7ABgqvlG-3" value="src" style="whiteSpace=wrap;html=1;" vertex="1" parent="1">
          <mxGeometry x="929" y="60" width="60" height="20" as="geometry" />
        </mxCell>
        <mxCell id="QzLz-SX4dngb7ABgqvlG-4" value="src" style="whiteSpace=wrap;html=1;" vertex="1" parent="1">
          <mxGeometry x="939" y="70" width="60" height="20" as="geometry" />
        </mxCell>
        <mxCell id="QzLz-SX4dngb7ABgqvlG-5" value="src" style="whiteSpace=wrap;html=1;" vertex="1" parent="1">
          <mxGeometry x="949" y="80" width="60" height="20" as="geometry" />
        </mxCell>
        <mxCell id="QzLz-SX4dngb7ABgqvlG-6" value="src" style="whiteSpace=wrap;html=1;" vertex="1" parent="1">
          <mxGeometry x="959" y="90" width="60" height="20" as="geometry" />
        </mxCell>
        <mxCell id="QzLz-SX4dngb7ABgqvlG-7" value="nats" style="whiteSpace=wrap;html=1;" vertex="1" parent="1">
          <mxGeometry x="817" y="180" width="60" height="20" as="geometry" />
        </mxCell>
        <mxCell id="QzLz-SX4dngb7ABgqvlG-8" value="layout" style="whiteSpace=wrap;html=1;" vertex="1" parent="1">
          <mxGeometry x="737" y="180" width="60" height="20" as="geometry" />
        </mxCell>
        <mxCell id="QzLz-SX4dngb7ABgqvlG-9" value="components" style="whiteSpace=wrap;html=1;" vertex="1" parent="1">
          <mxGeometry x="459" y="180" width="70" height="20" as="geometry" />
        </mxCell>
        <mxCell id="QzLz-SX4dngb7ABgqvlG-10" value="JointJs" style="whiteSpace=wrap;html=1;" vertex="1" parent="1">
          <mxGeometry x="647" y="180" width="60" height="20" as="geometry" />
        </mxCell>
        <mxCell id="QzLz-SX4dngb7ABgqvlG-11" value="dashboard" style="whiteSpace=wrap;html=1;" vertex="1" parent="1">
          <mxGeometry x="896" y="180" width="60" height="20" as="geometry" />
        </mxCell>
        <mxCell id="QzLz-SX4dngb7ABgqvlG-12" value="Babylon" style="whiteSpace=wrap;html=1;" vertex="1" parent="1">
          <mxGeometry x="555" y="180" width="60" height="20" as="geometry" />
        </mxCell>
        <mxCell id="QzLz-SX4dngb7ABgqvlG-13" value="design" style="whiteSpace=wrap;html=1;" vertex="1" parent="1">
          <mxGeometry x="439" y="120" width="60" height="20" as="geometry" />
        </mxCell>
        <mxCell id="QzLz-SX4dngb7ABgqvlG-14" value="composables" style="whiteSpace=wrap;html=1;" vertex="1" parent="1">
          <mxGeometry x="529" y="119" width="80" height="20" as="geometry" />
        </mxCell>
        <mxCell id="QzLz-SX4dngb7ABgqvlG-45" style="edgeStyle=orthogonalEdgeStyle;rounded=0;orthogonalLoop=1;jettySize=auto;html=1;entryX=0.5;entryY=0;entryDx=0;entryDy=0;exitX=0.5;exitY=1;exitDx=0;exitDy=0;" edge="1" parent="1" source="QzLz-SX4dngb7ABgqvlG-15" target="QzLz-SX4dngb7ABgqvlG-9">
          <mxGeometry relative="1" as="geometry" />
        </mxCell>
        <mxCell id="QzLz-SX4dngb7ABgqvlG-46" style="edgeStyle=orthogonalEdgeStyle;rounded=0;orthogonalLoop=1;jettySize=auto;html=1;entryX=0.5;entryY=0;entryDx=0;entryDy=0;exitX=0.5;exitY=1;exitDx=0;exitDy=0;" edge="1" parent="1" source="QzLz-SX4dngb7ABgqvlG-15" target="QzLz-SX4dngb7ABgqvlG-12">
          <mxGeometry relative="1" as="geometry" />
        </mxCell>
        <mxCell id="QzLz-SX4dngb7ABgqvlG-47" style="edgeStyle=orthogonalEdgeStyle;rounded=0;orthogonalLoop=1;jettySize=auto;html=1;entryX=0.5;entryY=0;entryDx=0;entryDy=0;" edge="1" parent="1" source="QzLz-SX4dngb7ABgqvlG-15" target="QzLz-SX4dngb7ABgqvlG-10">
          <mxGeometry relative="1" as="geometry" />
        </mxCell>
        <mxCell id="QzLz-SX4dngb7ABgqvlG-48" style="edgeStyle=orthogonalEdgeStyle;rounded=0;orthogonalLoop=1;jettySize=auto;html=1;exitX=0.5;exitY=1;exitDx=0;exitDy=0;" edge="1" parent="1" source="QzLz-SX4dngb7ABgqvlG-15" target="QzLz-SX4dngb7ABgqvlG-8">
          <mxGeometry relative="1" as="geometry">
            <Array as="points">
              <mxPoint x="678" y="160" />
              <mxPoint x="767" y="160" />
            </Array>
          </mxGeometry>
        </mxCell>
        <mxCell id="QzLz-SX4dngb7ABgqvlG-49" style="edgeStyle=orthogonalEdgeStyle;rounded=0;orthogonalLoop=1;jettySize=auto;html=1;" edge="1" parent="1" source="QzLz-SX4dngb7ABgqvlG-15" target="QzLz-SX4dngb7ABgqvlG-7">
          <mxGeometry relative="1" as="geometry">
            <Array as="points">
              <mxPoint x="677" y="160" />
              <mxPoint x="830" y="160" />
            </Array>
          </mxGeometry>
        </mxCell>
        <mxCell id="QzLz-SX4dngb7ABgqvlG-50" style="edgeStyle=orthogonalEdgeStyle;rounded=0;orthogonalLoop=1;jettySize=auto;html=1;entryX=0.5;entryY=0;entryDx=0;entryDy=0;" edge="1" parent="1" source="QzLz-SX4dngb7ABgqvlG-15" target="QzLz-SX4dngb7ABgqvlG-11">
          <mxGeometry relative="1" as="geometry">
            <Array as="points">
              <mxPoint x="678" y="160" />
              <mxPoint x="926" y="160" />
            </Array>
          </mxGeometry>
        </mxCell>
        <mxCell id="QzLz-SX4dngb7ABgqvlG-15" value="components" style="whiteSpace=wrap;html=1;" vertex="1" parent="1">
          <mxGeometry x="640" y="119" width="75" height="20" as="geometry" />
        </mxCell>
        <mxCell id="QzLz-SX4dngb7ABgqvlG-16" value="auth" style="whiteSpace=wrap;html=1;" vertex="1" parent="1">
          <mxGeometry x="740" y="120" width="60" height="20" as="geometry" />
        </mxCell>
        <mxCell id="QzLz-SX4dngb7ABgqvlG-17" value="e2e" style="whiteSpace=wrap;html=1;" vertex="1" parent="1">
          <mxGeometry x="190" y="60" width="60" height="20" as="geometry" />
        </mxCell>
        <mxCell id="QzLz-SX4dngb7ABgqvlG-18" value="assets" style="whiteSpace=wrap;html=1;" vertex="1" parent="1">
          <mxGeometry x="270" y="100" width="60" height="20" as="geometry" />
        </mxCell>
        <mxCell id="QzLz-SX4dngb7ABgqvlG-29" style="edgeStyle=orthogonalEdgeStyle;rounded=0;orthogonalLoop=1;jettySize=auto;html=1;entryX=0.5;entryY=0;entryDx=0;entryDy=0;" edge="1" parent="1" source="QzLz-SX4dngb7ABgqvlG-19" target="QzLz-SX4dngb7ABgqvlG-18">
          <mxGeometry relative="1" as="geometry" />
        </mxCell>
        <mxCell id="QzLz-SX4dngb7ABgqvlG-19" value="public" style="whiteSpace=wrap;html=1;" vertex="1" parent="1">
          <mxGeometry x="270" y="60" width="60" height="20" as="geometry" />
        </mxCell>
        <mxCell id="QzLz-SX4dngb7ABgqvlG-20" value="docs" style="whiteSpace=wrap;html=1;" vertex="1" parent="1">
          <mxGeometry x="360" y="60" width="60" height="20" as="geometry" />
        </mxCell>
        <mxCell id="QzLz-SX4dngb7ABgqvlG-27" style="edgeStyle=orthogonalEdgeStyle;rounded=0;orthogonalLoop=1;jettySize=auto;html=1;entryX=0.5;entryY=0;entryDx=0;entryDy=0;" edge="1" parent="1" source="QzLz-SX4dngb7ABgqvlG-21" target="QzLz-SX4dngb7ABgqvlG-20">
          <mxGeometry relative="1" as="geometry" />
        </mxCell>
        <mxCell id="QzLz-SX4dngb7ABgqvlG-32" style="edgeStyle=orthogonalEdgeStyle;rounded=0;orthogonalLoop=1;jettySize=auto;html=1;entryX=0.5;entryY=0;entryDx=0;entryDy=0;" edge="1" parent="1" source="QzLz-SX4dngb7ABgqvlG-21" target="QzLz-SX4dngb7ABgqvlG-19">
          <mxGeometry relative="1" as="geometry" />
        </mxCell>
        <mxCell id="QzLz-SX4dngb7ABgqvlG-33" style="edgeStyle=orthogonalEdgeStyle;rounded=0;orthogonalLoop=1;jettySize=auto;html=1;entryX=0.5;entryY=0;entryDx=0;entryDy=0;" edge="1" parent="1" source="QzLz-SX4dngb7ABgqvlG-21" target="QzLz-SX4dngb7ABgqvlG-17">
          <mxGeometry relative="1" as="geometry" />
        </mxCell>
        <mxCell id="QzLz-SX4dngb7ABgqvlG-21" value="vue-enterprise-boilerplate" style="whiteSpace=wrap;html=1;" vertex="1" parent="1">
          <mxGeometry x="540" y="20" width="160" height="20" as="geometry" />
        </mxCell>
        <mxCell id="QzLz-SX4dngb7ABgqvlG-25" style="edgeStyle=orthogonalEdgeStyle;rounded=0;orthogonalLoop=1;jettySize=auto;html=1;entryX=0.5;entryY=0;entryDx=0;entryDy=0;" edge="1" parent="1" source="QzLz-SX4dngb7ABgqvlG-21" target="QzLz-SX4dngb7ABgqvlG-1">
          <mxGeometry relative="1" as="geometry" />
        </mxCell>
        <mxCell id="QzLz-SX4dngb7ABgqvlG-34" value="assets" style="whiteSpace=wrap;html=1;" vertex="1" parent="1">
          <mxGeometry x="820" y="119" width="60" height="20" as="geometry" />
        </mxCell>
        <mxCell id="QzLz-SX4dngb7ABgqvlG-38" style="edgeStyle=orthogonalEdgeStyle;rounded=0;orthogonalLoop=1;jettySize=auto;html=1;entryX=0.5;entryY=0;entryDx=0;entryDy=0;exitX=0;exitY=0.5;exitDx=0;exitDy=0;" edge="1" parent="1" source="QzLz-SX4dngb7ABgqvlG-1" target="QzLz-SX4dngb7ABgqvlG-14">
          <mxGeometry relative="1" as="geometry">
            <mxPoint x="569" y="390" as="targetPoint" />
            <Array as="points">
              <mxPoint x="569" y="80" />
            </Array>
          </mxGeometry>
        </mxCell>
      </root>
    </mxGraphModel>
  </diagram>
</mxfile>
